<svg viewBox="0 0 152 43" height="43" width="152"><g clip-path="url(#clip0_1711_2106)"><path d="M62.6012 3.27051H65.5582L71.6701 19.0915H68.6906L67.202 14.9042H60.8674L59.3788 19.0915H56.5117L62.6012 3.27051ZM61.623 12.7972H66.4689L64.0898 5.99401H64.0223L61.6207 12.7972H61.623Z" fill="white"></path><path d="M72.8936 3.27051H75.4278V12.2659L80.0062 7.63484H83.1183L78.7177 11.8445L83.5411 19.0893H80.4514L76.9389 13.5279L75.4278 14.9894V19.0893H72.8936V3.27051Z" fill="white"></path><path d="M86.741 14.0165C86.741 14.4604 86.804 14.8885 86.9299 15.3009C87.0558 15.7156 87.2447 16.0765 87.4966 16.3859C87.7484 16.6952 88.0677 16.944 88.4523 17.1278C88.8368 17.3139 89.2978 17.4058 89.8307 17.4058C90.5705 17.4058 91.1687 17.2466 91.6207 16.9306C92.0726 16.6123 92.4099 16.137 92.6326 15.5004H95.0342C94.9015 16.1214 94.6699 16.675 94.3461 17.1614C94.02 17.6479 93.6265 18.0581 93.1678 18.3921C92.709 18.7238 92.1941 18.9749 91.6229 19.1452C91.0517 19.3156 90.4558 19.4008 89.8329 19.4008C88.929 19.4008 88.1284 19.2528 87.4313 18.9569C86.7343 18.661 86.1451 18.2486 85.6639 17.7151C85.1827 17.1839 84.8184 16.5495 84.5755 15.8098C84.3304 15.0723 84.209 14.2586 84.209 13.3732C84.209 12.5617 84.3394 11.7884 84.598 11.0577C84.8566 10.3269 85.2276 9.68357 85.7089 9.1299C86.1901 8.57623 86.7725 8.13689 87.4538 7.81186C88.1352 7.48683 88.9065 7.32544 89.7655 7.32544C90.6695 7.32544 91.4812 7.51373 92.1986 7.89031C92.9181 8.2669 93.514 8.76453 93.9885 9.38544C94.463 10.0064 94.807 10.7192 95.0229 11.5239C95.2365 12.3286 95.2928 13.1602 95.1893 14.0165H86.7433H86.741ZM92.6528 12.3555C92.6236 11.9565 92.5381 11.5732 92.3965 11.2034C92.2548 10.8335 92.0636 10.5129 91.8185 10.2395C91.5734 9.96601 91.2766 9.74409 90.9303 9.57373C90.5818 9.40337 90.1927 9.31819 89.7632 9.31819C89.3337 9.31819 88.9155 9.39665 88.5512 9.55132C88.1869 9.70598 87.8766 9.92118 87.618 10.1946C87.3594 10.4681 87.1503 10.7887 86.9951 11.1585C86.8399 11.5284 86.7545 11.9274 86.7388 12.3555H92.6506H92.6528Z" fill="white"></path><path d="M97.1211 7.63482H99.5002V9.84949H99.5452C99.6194 9.54015 99.7633 9.23754 99.9792 8.94165C100.193 8.64577 100.454 8.37678 100.757 8.13245C101.061 7.88812 101.398 7.6931 101.769 7.54516C102.14 7.39721 102.518 7.32324 102.902 7.32324C103.199 7.32324 103.402 7.32997 103.514 7.34566C103.624 7.36135 103.739 7.3748 103.858 7.39049V9.82707C103.681 9.79793 103.498 9.77104 103.314 9.74862C103.127 9.7262 102.947 9.715 102.77 9.715C102.34 9.715 101.936 9.80018 101.558 9.97053C101.18 10.1409 100.849 10.3919 100.568 10.7237C100.287 11.0555 100.065 11.4657 99.9005 11.9543C99.7363 12.4407 99.6554 13.0034 99.6554 13.6377V19.0892H97.1211V7.63482Z" fill="white"></path><path d="M60.1797 34.5291C60.1797 35.1343 60.2831 35.6521 60.49 36.0802C60.6969 36.5084 60.987 36.8603 61.358 37.1338C61.729 37.4072 62.154 37.6067 62.6352 37.7323C63.1165 37.8578 63.6382 37.9206 64.2026 37.9206C64.8097 37.9206 65.3292 37.8511 65.7587 37.7099C66.1882 37.5686 66.5367 37.3893 66.8043 37.1674C67.0719 36.9455 67.263 36.6899 67.3822 36.403C67.5014 36.1139 67.5599 35.8225 67.5599 35.5288C67.5599 34.9236 67.4227 34.4753 67.1484 34.1884C66.874 33.8992 66.5749 33.6975 66.2489 33.5787C65.6845 33.3724 65.0301 33.1774 64.2813 32.9914C63.5325 32.8075 62.6105 32.5677 61.5131 32.2718C60.8318 32.0947 60.2651 31.8616 59.8131 31.5747C59.3612 31.2855 59.0014 30.965 58.736 30.6108C58.4684 30.2566 58.2795 29.8801 58.1694 29.4811C58.0592 29.0821 58.003 28.6763 58.003 28.2617C58.003 27.4637 58.1694 26.7732 58.5022 26.1904C58.835 25.6076 59.2757 25.1235 59.8244 24.7401C60.3731 24.3568 60.996 24.0722 61.6908 23.8861C62.3879 23.7023 63.0917 23.6082 63.8023 23.6082C64.6321 23.6082 65.4146 23.7157 66.1477 23.9287C66.8808 24.1439 67.5261 24.4644 68.0816 24.8926C68.637 25.3207 69.0777 25.8497 69.4038 26.4774C69.7299 27.105 69.8918 27.8335 69.8918 28.6606H67.1124C67.0382 27.6407 66.6896 26.9212 66.0667 26.4998C65.4439 26.0784 64.6523 25.8677 63.6876 25.8677C63.3616 25.8677 63.0288 25.9013 62.687 25.9663C62.3452 26.0335 62.0348 26.1434 61.7538 26.298C61.4727 26.4527 61.2388 26.6634 61.0544 26.9302C60.8678 27.1969 60.7756 27.5287 60.7756 27.9277C60.7756 28.488 60.9487 28.9274 61.2973 29.2457C61.6458 29.564 62.1001 29.8038 62.6645 29.9652C62.7229 29.9809 62.9568 30.0437 63.3638 30.1535C63.7708 30.2634 64.2273 30.3867 64.731 30.5189C65.2347 30.6512 65.7272 30.7812 66.2084 30.9067C66.6896 31.0322 67.0337 31.1241 67.2428 31.1847C67.7623 31.3483 68.2142 31.568 68.5988 31.8504C68.9833 32.1306 69.3071 32.4534 69.5657 32.8143C69.8243 33.1774 70.0177 33.5652 70.1436 33.9776C70.2695 34.3923 70.3325 34.8048 70.3325 35.2195C70.3325 36.1049 70.1504 36.8625 69.7883 37.4902C69.424 38.1178 68.9473 38.6311 68.3537 39.0301C67.76 39.4291 67.0876 39.7205 66.3298 39.9044C65.5743 40.0882 64.803 40.1823 64.0182 40.1823C63.1142 40.1823 62.262 40.0725 61.4614 39.8506C60.6609 39.6286 59.9638 39.2902 59.3724 38.8306C58.7787 38.3734 58.3065 37.7861 57.949 37.0688C57.5937 36.3515 57.407 35.5064 57.3936 34.5313H60.1729L60.1797 34.5291Z" fill="white"></path><path d="M77.6717 40.1129C76.752 40.1129 75.9335 39.9605 75.2162 39.6579C74.4966 39.3553 73.8894 38.9383 73.3925 38.4049C72.8955 37.8736 72.5177 37.2392 72.2591 36.4995C72.0005 35.762 71.8701 34.9484 71.8701 34.0629C71.8701 33.1775 72.0005 32.3862 72.2591 31.6488C72.5177 30.9113 72.8955 30.2747 73.3925 29.7434C73.8894 29.2122 74.4966 28.7952 75.2162 28.4926C75.9357 28.19 76.7543 28.0376 77.6717 28.0376C78.5892 28.0376 79.41 28.19 80.1273 28.4926C80.8469 28.7952 81.454 29.2122 81.951 29.7434C82.4479 30.2747 82.8257 30.9113 83.0843 31.6488C83.3429 32.3885 83.4733 33.1932 83.4733 34.0629C83.4733 34.9327 83.3429 35.762 83.0843 36.4995C82.8257 37.2392 82.4479 37.8736 81.951 38.4049C81.454 38.9361 80.8469 39.3553 80.1273 39.6579C79.4077 39.9605 78.5892 40.1129 77.6717 40.1129ZM77.6717 38.1179C78.2339 38.1179 78.7241 37.9991 79.1379 37.7638C79.5516 37.5284 79.8934 37.2168 80.161 36.8335C80.4286 36.4502 80.6243 36.0176 80.7502 35.5379C80.8761 35.0582 80.9391 34.5673 80.9391 34.0652C80.9391 33.5631 80.8761 33.0901 80.7502 32.6037C80.6243 32.1173 80.4286 31.6846 80.161 31.308C79.8934 30.9315 79.5539 30.6244 79.1379 30.389C78.7219 30.1536 78.2339 30.0348 77.6717 30.0348C77.1096 30.0348 76.6194 30.1536 76.2056 30.389C75.7896 30.6244 75.45 30.9315 75.1824 31.308C74.9148 31.6846 74.7192 32.1173 74.5933 32.6037C74.4674 33.0901 74.4044 33.5788 74.4044 34.0652C74.4044 34.5516 74.4674 35.0582 74.5933 35.5379C74.7192 36.0176 74.9148 36.4502 75.1824 36.8335C75.45 37.2168 75.7896 37.5284 76.2056 37.7638C76.6194 37.9991 77.1096 38.1179 77.6717 38.1179Z" fill="white"></path><path d="M85.6523 23.9827H88.1866V39.8037H85.6523V23.9827Z" fill="white"></path><path d="M101.034 39.8014H98.5442V38.2054H98.4992C98.1889 38.7815 97.7257 39.2432 97.1096 39.5907C96.4934 39.9381 95.8683 40.1107 95.2319 40.1107C93.7208 40.1107 92.6279 39.7386 91.9533 38.9922C91.2787 38.2457 90.9414 37.1205 90.9414 35.6141V28.347H93.4757V35.3698C93.4757 36.374 93.6691 37.0846 94.0536 37.497C94.4381 37.9117 94.98 38.118 95.6771 38.118C96.2101 38.118 96.6553 38.0373 97.0106 37.8736C97.3659 37.7122 97.656 37.4926 97.8786 37.2191C98.1012 36.9456 98.2609 36.6184 98.3576 36.2328C98.4543 35.8495 98.5015 35.4348 98.5015 34.991V28.3447H101.036V39.7991L101.034 39.8014Z" fill="white"></path><path d="M102.544 28.3469H104.456V24.9128H106.99V28.3469H109.279V30.2298H106.99V36.3448C106.99 36.6116 107.001 36.8402 107.024 37.0308C107.046 37.2235 107.098 37.3849 107.179 37.5172C107.26 37.6494 107.383 37.7503 107.545 37.8153C107.707 37.8826 107.93 37.9139 108.213 37.9139C108.391 37.9139 108.568 37.9095 108.746 37.9027C108.924 37.896 109.101 37.8691 109.279 37.8243V39.7744C108.998 39.8036 108.724 39.8327 108.456 39.8641C108.188 39.8932 107.914 39.9089 107.633 39.9089C106.965 39.9089 106.43 39.8462 106.021 39.7206C105.614 39.5951 105.294 39.4113 105.065 39.167C104.836 38.9226 104.68 38.6178 104.597 38.2479C104.516 37.8781 104.467 37.4589 104.453 36.9859V30.2276H102.542V28.3447L102.544 28.3469Z" fill="white"></path><path d="M111.168 23.9827H113.702V26.3767H111.168V23.9827ZM111.168 28.347H113.702V39.8014H111.168V28.347Z" fill="white"></path><path d="M121.725 40.1129C120.806 40.1129 119.987 39.9605 119.27 39.6579C118.55 39.3553 117.943 38.9383 117.446 38.4049C116.949 37.8736 116.571 37.2392 116.313 36.4995C116.054 35.762 115.924 34.9484 115.924 34.0629C115.924 33.1775 116.054 32.3862 116.313 31.6488C116.571 30.9113 116.949 30.2747 117.446 29.7434C117.943 29.2122 118.55 28.7952 119.27 28.4926C119.989 28.19 120.808 28.0376 121.725 28.0376C122.643 28.0376 123.464 28.19 124.181 28.4926C124.901 28.7952 125.508 29.2122 126.005 29.7434C126.502 30.2747 126.879 30.9113 127.138 31.6488C127.397 32.3885 127.527 33.1932 127.527 34.0629C127.527 34.9327 127.397 35.762 127.138 36.4995C126.879 37.2392 126.502 37.8736 126.005 38.4049C125.508 38.9361 124.901 39.3553 124.181 39.6579C123.461 39.9605 122.643 40.1129 121.725 40.1129ZM121.725 38.1179C122.288 38.1179 122.778 37.9991 123.192 37.7638C123.605 37.5284 123.947 37.2168 124.215 36.8335C124.482 36.4502 124.678 36.0176 124.804 35.5379C124.93 35.0582 124.993 34.5673 124.993 34.0652C124.993 33.5631 124.93 33.0901 124.804 32.6037C124.678 32.1173 124.482 31.6846 124.215 31.308C123.947 30.9315 123.608 30.6244 123.192 30.389C122.776 30.1536 122.288 30.0348 121.725 30.0348C121.163 30.0348 120.673 30.1536 120.259 30.389C119.843 30.6244 119.504 30.9315 119.236 31.308C118.969 31.6846 118.773 32.1173 118.647 32.6037C118.521 33.0901 118.458 33.5788 118.458 34.0652C118.458 34.5516 118.521 35.0582 118.647 35.5379C118.773 36.0176 118.969 36.4502 119.236 36.8335C119.504 37.2168 119.843 37.5284 120.259 37.7638C120.673 37.9991 121.163 38.1179 121.725 38.1179Z" fill="white"></path><path d="M129.639 28.3469H132.04V30.0304L132.085 30.0752C132.47 29.4408 132.973 28.9409 133.596 28.5801C134.219 28.2192 134.907 28.0376 135.663 28.0376C136.922 28.0376 137.916 28.3626 138.642 29.0127C139.369 29.6627 139.731 30.6378 139.731 31.9379V39.8036H137.197V32.6014C137.167 31.7003 136.974 31.048 136.619 30.6401C136.263 30.2343 135.708 30.0304 134.952 30.0304C134.523 30.0304 134.138 30.1088 133.796 30.2635C133.455 30.4181 133.167 30.6333 132.929 30.9068C132.692 31.1803 132.506 31.5008 132.373 31.8707C132.24 32.2405 132.173 32.6306 132.173 33.0453V39.8036H129.639V28.3492V28.3469Z" fill="white"></path><path d="M144.309 36.123C144.384 36.8627 144.665 37.3783 145.155 37.6741C145.643 37.97 146.23 38.118 146.911 38.118C147.147 38.118 147.419 38.1 147.723 38.0619C148.026 38.0261 148.312 37.9543 148.58 37.8512C148.847 37.7481 149.065 37.5957 149.236 37.3962C149.407 37.1967 149.484 36.9344 149.47 36.6094C149.454 36.2844 149.337 36.0199 149.115 35.8114C148.892 35.6052 148.607 35.4393 148.258 35.3138C147.91 35.1882 147.514 35.0806 147.069 34.9932C146.623 34.9036 146.171 34.8094 145.713 34.7041C145.238 34.601 144.782 34.4754 144.345 34.3275C143.909 34.1795 143.516 33.98 143.167 33.729C142.818 33.4779 142.542 33.1574 142.333 32.7651C142.126 32.3728 142.022 31.8909 142.022 31.3148C142.022 30.6939 142.173 30.1739 142.479 29.7524C142.783 29.331 143.167 28.9925 143.635 28.7325C144.102 28.4747 144.62 28.2932 145.191 28.1901C145.762 28.087 146.306 28.0354 146.826 28.0354C147.417 28.0354 147.986 28.0982 148.526 28.2237C149.065 28.3492 149.556 28.5532 149.992 28.8334C150.428 29.1136 150.792 29.479 151.08 29.9295C151.37 30.3801 151.55 30.9225 151.624 31.5591H148.98C148.861 30.9539 148.584 30.5482 148.146 30.3397C147.709 30.1335 147.208 30.0304 146.646 30.0304C146.468 30.0304 146.257 30.0461 146.012 30.0752C145.767 30.1044 145.537 30.1604 145.324 30.2411C145.108 30.3218 144.928 30.4406 144.779 30.5953C144.631 30.7499 144.557 30.9539 144.557 31.205C144.557 31.5143 144.665 31.7654 144.878 31.9581C145.092 32.1509 145.375 32.3101 145.724 32.4356C146.072 32.5611 146.468 32.6687 146.913 32.7561C147.359 32.8458 147.817 32.9422 148.292 33.0453C148.751 33.1484 149.203 33.2739 149.648 33.4219C150.093 33.5698 150.489 33.7693 150.837 34.0204C151.186 34.2714 151.467 34.5897 151.683 34.9731C151.896 35.3564 152.004 35.8293 152.004 36.392C152.004 37.0712 151.849 37.6472 151.537 38.1202C151.226 38.5932 150.822 38.9765 150.325 39.2724C149.828 39.5683 149.277 39.7812 148.67 39.9157C148.062 40.048 147.462 40.1152 146.868 40.1152C146.142 40.1152 145.472 40.0345 144.856 39.8709C144.24 39.7095 143.707 39.4607 143.255 39.1289C142.803 38.7972 142.447 38.3825 142.189 37.8871C141.93 37.3917 141.793 36.8044 141.777 36.1252H144.312L144.309 36.123Z" fill="white"></path><path d="M43.137 0H34.5088V8.6009H43.137V0Z" fill="#FF9900"></path><path d="M30.9153 0H22.2871V20.7838H30.9153H43.1369V12.1829H30.9153V0Z" fill="white"></path><path d="M18.6933 0H0V24.3658V28.6674V43H43.1366V24.3658H18.6933V0Z" fill="white"></path></g><defs><clipPath id="clip0_1711_2106"><rect width="152" height="43" fill="white"></rect></clipPath></defs></svg>