<svg width="1377" height="161" viewBox="0 0 1377 161" fill="none" xmlns="http://www.w3.org/2000/svg">
<path d="M1331.83 160.962C1307.44 160.962 1287.65 141.092 1287.65 116.608V44.7177C1287.65 20.2334 1307.44 0.363159 1331.83 0.363159C1356.22 0.363159 1376.01 20.2334 1376.01 44.7177V116.608C1376.01 141.092 1356.22 160.962 1331.83 160.962ZM1331.83 5.57258C1310.26 5.57258 1292.84 23.0613 1292.84 44.7177V116.608C1292.91 138.264 1310.48 155.678 1332.05 155.604C1353.47 155.529 1370.82 138.115 1370.89 116.608V44.7177C1370.82 23.0613 1353.4 5.57258 1331.83 5.57258Z" fill="#CAFB86"/>
<path d="M1325.68 98.4491H1352.07V103.659H1325.68C1319.23 103.659 1315.52 107.156 1315.52 113.333V115.566C1315.52 121.743 1319.23 125.24 1325.68 125.24H1352.07V130.375H1325.68C1316.71 130.375 1310.92 125.24 1310.92 116.459V112.291C1311 103.584 1316.71 98.4491 1325.68 98.4491Z" fill="#CAFB86"/>
<path d="M1322.49 91.156C1315.67 91.156 1311.29 86.021 1311.29 78.058V61.4623H1352.36V77.3138C1352.36 85.2768 1347.99 90.4118 1341.17 90.4118C1336.57 90.4118 1333.24 87.9559 1331.98 83.3418C1330.79 88.328 1327.23 91.156 1322.49 91.156ZM1334.2 66.6717V76.9417C1334.2 82.0767 1336.87 85.2768 1341.02 85.2768C1345.25 85.2768 1347.84 82.0767 1347.84 76.9417V66.6717H1334.2ZM1322.71 85.9466C1327.01 85.9466 1329.61 82.7465 1329.61 77.6115V66.6717H1315.89V77.6115C1315.89 82.7465 1318.49 85.9466 1322.71 85.9466Z" fill="#CAFB86"/>
<path d="M1347.84 54.9133V34.8942H1334.72V54.69H1330.2V34.8942H1311.29V29.6848H1352.36V54.9133H1347.84Z" fill="#CAFB86"/>
<path d="M1124.16 124.207L1058.19 0H1139.66L1152.33 31.5542C1157.6 44.5777 1160.26 58.4943 1160.34 72.5598H1166.42C1166.34 58.4943 1169.01 44.5777 1174.2 31.5542L1186.88 0H1268.34L1202.37 124.207V160.525H1124.16V124.207Z" fill="#CAFB86"/>
<path d="M912.75 0H1051.07L1087.25 160.525H1009.04L1003.85 136.71H959.673L954.484 160.525H876.279L912.75 0ZM995.625 100.17L987.842 66.6806C985.766 57.899 984.728 48.8197 984.803 39.8149H978.724C978.798 48.8941 977.76 57.899 975.685 66.6806L967.901 100.17H995.625Z" fill="#CAFB86"/>
<path d="M623.65 0H701.855L708.897 41.7498C712.381 62.4386 714.086 83.4251 714.086 104.486H720.165C720.165 85.881 722.018 67.3504 725.799 49.1174L736.102 0.0744021H779.542L789.623 49.1174C793.552 67.3504 795.553 85.881 795.479 104.486H801.558C801.484 83.4995 803.263 62.513 806.747 41.7498L813.566 0H891.994L863.603 160.525H771.313L765.68 128.673C762.418 110.44 760.787 91.9835 760.713 73.5272H754.635C754.56 91.9835 753.004 110.44 749.964 128.673L744.108 160.525H651.819L623.65 0Z" fill="#CAFB86"/>
<path d="M409.271 0H504.378L520.093 33.9356C530.397 56.0385 535.808 80.2251 535.808 104.635H541.886V0H620.092V160.525H524.985L509.27 126.589C498.892 104.486 493.555 80.2995 493.555 55.8896H487.476V160.525H409.271V0Z" fill="#CAFB86"/>
<path d="M205.048 136.264V0H283.253V120.71H319.65V0H397.855V136.264C397.855 149.659 387.107 160.525 373.764 160.525H373.69H229.214C215.871 160.525 205.048 149.734 205.048 136.264Z" fill="#CAFB86"/>
<path d="M0.00878906 0H168.576C181.92 0 192.742 10.7909 192.742 24.1866V24.261V73.5272C192.742 86.9229 181.994 97.7882 168.651 97.7882H168.576V103.891C176.656 103.965 183.847 109.323 186.219 117.063L199.34 160.45H117.206L99.8596 105.751H78.2882V160.45H0.00878906V0ZM114.611 64.0759V39.8149H78.2141V64.0759H114.611Z" fill="#CAFB86"/>
</svg>
